<?xml version="1.0" encoding="UTF-8"?>
<svg data-id="a" data-name="Layer 1" xmlns="http://www.w3.org/2000/svg" viewBox="0 0 244.15 131.92">
  <path d="m205.92,101.8c-1.1-1-2.1-2.1-3.2-3.1-1.5-1.5-2.8-2.9-3.1-4.8-.4-1.8.2-3.5,1.5-4.8s3-1.9,4.8-1.5c1.9.4,3.3,1.6,4.8,3.1,1,1,2.1,2.1,3.1,3.1,1.5,1.5,2.8,2.9,3.1,4.8.4,1.8-.2,3.5-1.5,4.8s-3,1.9-4.8,1.5-3.2-1.6-4.7-3.1Z"/>
  <path d="m14.32,93.8c-1.1-1.1-2.1-2.1-3.1-3.1-1.5-1.5-2.9-2.8-4.8-3.1-1.8-.4-3.5.2-4.8,1.5-1.3,1.3-1.9,3-1.5,4.8.4,1.9,1.6,3.3,3.1,4.8,1,1,2.1,2.1,3.1,3.1,1.5,1.5,2.9,2.8,4.8,3.1,1.8.4,3.5-.2,4.8-1.5s1.9-3,1.5-4.8c-.3-1.9-1.5-3.3-3.1-4.8Z"/>
  <path d="m38.22,101.8c1.1-1,2.1-2.1,3.1-3.1,1.5-1.5,2.8-2.9,3.1-4.8.4-1.8-.2-3.5-1.5-4.8s-3-1.9-4.8-1.5c-1.9.4-3.3,1.6-4.8,3.1-1,1-2.1,2.1-3.1,3.1-1.5,1.5-2.8,2.9-3.1,4.8-.4,1.8.2,3.5,1.5,4.8s3,1.9,4.8,1.5c1.9-.4,3.2-1.6,4.8-3.1Z"/>
  <path d="m213.92,125.6c-1,1-2.1,2.1-3.1,3.1-1.5,1.5-2.9,2.8-4.8,3.1-1.8.4-3.5-.2-4.8-1.5s-1.9-3-1.5-4.8c.4-1.9,1.6-3.3,3.1-4.8,1.1-1.1,2.1-2.1,3.1-3.1,1.5-1.5,2.9-2.8,4.8-3.1,1.8-.4,3.5.2,4.8,1.5s1.9,3,1.5,4.8c-.4,1.9-1.6,3.3-3.1,4.8Z"/>
  <path d="m237.72,117.6c1,1,2.1,2.1,3.1,3.1,1.5,1.5,2.8,2.9,3.1,4.8.4,1.8-.2,3.5-1.5,4.8s-3,1.9-4.8,1.5c-1.9-.4-3.3-1.6-4.8-3.1-1.1-1-2.1-2.1-3.2-3.1-1.5-1.5-2.8-2.9-3.1-4.8-.4-1.8.2-3.5,1.5-4.8s3-1.9,4.8-1.5c2,.4,3.4,1.6,4.9,3.1Z"/>
  <path d="m177.72,112c0,1.2-.2,2.5-1.3,3.6s-2.4,1.3-3.6,1.3h-101.4c-1.2,0-2.5-.1-3.6-1.3-1.1-1.1-1.3-2.5-1.3-3.6v.1c0-12.2-1-24-9.9-34-7.8-8.7-18.1-11.7-29-12.3h0c-1.6-.1-3.2-.3-4.4-1.7-1.2-1.4-1.2-3-1-4.6.6-6.5,1.4-13.1,2.2-19.6,1.4-10.7,3.8-21.2,13-29.5C46.52,2,57.12.8,68.02.6c18-.4,36-.6,54.1-.6s36.1.2,54.1.6c10.9.2,21.4,1.4,30.7,9.7,9.2,8.3,11.6,18.8,13,29.5.8,6.5,1.6,13.1,2.2,19.6.2,1.6.2,3.2-1,4.6-1.2,1.4-2.7,1.6-4.4,1.7h0c-10.9.7-21.1,3.6-29,12.3-9,10-10,21.9-10,34"/>
  <path d="m229.82,93.8c1.1-1.1,2.1-2.1,3.1-3.1,1.5-1.5,2.9-2.8,4.8-3.1,1.8-.4,3.5.2,4.8,1.5s1.9,3,1.5,4.8c-.4,1.9-1.6,3.3-3.1,4.8-1,1-2.1,2.1-3.1,3.1-1.5,1.5-2.9,2.8-4.8,3.1-1.8.4-3.5-.2-4.8-1.5s-1.9-3-1.5-4.8c.3-1.9,1.5-3.3,3.1-4.8Z"/>
  <path d="m30.22,125.6l3.1,3.1c1.5,1.5,2.9,2.8,4.8,3.1,1.8.4,3.5-.2,4.8-1.5s1.9-3,1.5-4.8c-.4-1.9-1.6-3.3-3.1-4.8l-3.1-3.1c-1.5-1.5-2.9-2.8-4.8-3.1-1.8-.4-3.5.2-4.8,1.5s-1.9,3-1.5,4.8c.4,1.9,1.6,3.3,3.1,4.8Z"/>
  <path d="m6.42,117.6c-1,1-2.1,2.1-3.1,3.1-1.5,1.5-2.8,2.9-3.1,4.8-.4,1.8.2,3.5,1.5,4.8,1.3,1.3,3,1.9,4.8,1.5,1.9-.4,3.3-1.6,4.8-3.1,1.1-1,2.1-2.1,3.1-3.1,1.5-1.5,2.8-2.9,3.1-4.8.4-1.8-.2-3.5-1.5-4.8-1.3-1.3-3-1.9-4.8-1.5-1.9.4-3.3,1.6-4.8,3.1Z"/>
</svg>